<?xml version="1.0" standalone="no"?>
<!DOCTYPE svg PUBLIC "-//W3C//DTD SVG 20010904//EN"
 "http://www.w3.org/TR/2001/REC-SVG-20010904/DTD/svg10.dtd">
<svg version="1.0" xmlns="http://www.w3.org/2000/svg"
 width="1024.000000pt" height="1024.000000pt" viewBox="0 0 1024.000000 1024.000000"
 preserveAspectRatio="xMidYMid meet">
<metadata>
Created by potrace 1.14, written by Peter Selinger 2001-2017
</metadata>
<g transform="translate(0.000000,1024.000000) scale(0.100000,-0.100000)"
fill="#000000" stroke="none">
<path d="M0 5120 l0 -5120 4720 0 4720 0 0 80 0 80 320 0 320 0 0 -80 0 -80
80 0 80 0 0 5120 0 5120 -5120 0 -5120 0 0 -5120z m5630 5026 c0 -3 -4 -8 -10
-11 -5 -3 -10 -1 -10 4 0 6 5 11 10 11 6 0 10 -2 10 -4z m4117 -331 c59 -30
70 -41 83 -85 l9 -31 -37 3 c-32 3 -37 6 -34 27 4 37 -15 51 -69 51 -26 0 -51
5 -54 10 -3 6 -1 10 4 10 6 0 11 6 11 14 0 13 12 23 31 25 3 1 28 -10 56 -24z
m-7017 -105 c0 -5 -4 -10 -10 -10 -5 0 -10 5 -10 10 0 6 5 10 10 10 6 0 10 -4
10 -10z m7334 -160 c6 -6 2 -12 -8 -16 -12 -4 -25 1 -39 16 l-22 22 30 -6 c17
-4 34 -11 39 -16z m72 -85 c-22 -17 -36 -19 -36 -7 0 14 12 22 34 22 21 -1 21
-1 2 -15z m-3428 -438 c10 -8 8 -13 -8 -24 -19 -14 -23 -13 -35 3 -8 11 -15
22 -15 26 0 10 43 6 58 -5z m-4680 -173 c28 -19 28 -32 0 -43 -27 -10 -63 20
-54 45 7 18 26 18 54 -2z m-98 -84 c0 -23 -18 -36 -32 -22 -7 7 -6 17 2 31 13
24 30 19 30 -9z m6276 -268 c-10 -9 -14 1 -20 53 l-6 50 16 -49 c8 -26 13 -51
10 -54z m-2426 -236 c75 -8 125 -16 305 -51 228 -43 505 -121 521 -146 3 -5
16 -9 29 -9 13 0 27 -4 30 -10 3 -5 37 -19 75 -30 39 -12 70 -25 70 -30 0 -6
10 -10 21 -10 18 0 94 -35 109 -50 3 -3 35 -20 73 -38 37 -19 67 -37 67 -41 0
-4 17 -13 38 -20 45 -16 132 -78 132 -94 0 -7 4 -6 10 3 8 12 10 12 11 -5 0
-11 3 -14 6 -7 3 9 12 5 28 -13 13 -14 30 -25 37 -25 7 0 19 -9 26 -20 7 -11
18 -20 26 -20 8 0 17 -7 20 -16 3 -8 10 -13 14 -10 10 6 52 -38 52 -54 0 -6 7
-10 15 -10 8 0 24 -9 34 -19 11 -11 22 -17 25 -13 3 3 6 0 6 -6 0 -7 7 -12 15
-12 8 0 15 -7 15 -15 0 -8 6 -15 13 -15 8 0 20 -11 27 -25 7 -14 19 -25 26
-25 7 0 17 -7 22 -16 5 -9 13 -15 18 -14 5 0 11 -9 12 -21 2 -12 7 -18 10 -12
4 6 20 -4 38 -23 17 -19 29 -34 25 -34 -3 0 8 -13 24 -28 17 -16 39 -41 49
-55 10 -15 21 -25 24 -23 5 6 32 -19 32 -29 0 -8 17 -28 58 -70 17 -18 32 -36
32 -40 0 -4 11 -20 25 -37 14 -16 25 -38 25 -48 0 -21 20 -39 20 -18 1 20 50
-41 50 -62 0 -10 8 -21 18 -24 21 -7 46 -61 36 -77 -4 -7 -3 -9 4 -5 6 3 13
-3 17 -14 4 -11 11 -18 16 -15 5 4 9 -3 9 -13 0 -11 7 -25 15 -32 8 -7 15 -21
15 -31 0 -10 12 -30 28 -46 15 -15 27 -30 27 -33 0 -13 33 -49 39 -43 4 4 4 0
1 -8 -8 -20 8 -58 35 -87 11 -12 18 -27 15 -32 -4 -6 -1 -9 7 -8 8 2 14 -9 16
-27 2 -16 12 -40 23 -51 11 -12 19 -25 17 -30 -1 -5 4 -19 11 -32 7 -13 10
-30 7 -38 -4 -12 0 -14 17 -10 12 3 16 3 9 0 -6 -3 -9 -10 -6 -15 3 -6 0 -16
-6 -24 -10 -12 -9 -15 9 -15 13 0 21 -7 22 -17 2 -69 17 -113 27 -84 3 9 14
-4 29 -34 15 -32 20 -52 13 -59 -6 -6 -6 -14 0 -20 4 -6 10 -31 13 -56 3 -32
9 -46 20 -48 18 -4 24 -22 7 -22 -5 0 -10 -19 -10 -42 0 -40 0 -41 20 -23 19
17 20 17 20 1 0 -9 -4 -15 -9 -12 -5 3 -12 -1 -15 -10 -4 -11 -1 -14 12 -10
12 4 21 -2 29 -20 10 -22 10 -25 -3 -20 -16 6 -17 4 -8 -18 3 -8 13 -13 22
-10 9 3 7 -1 -5 -7 -26 -14 -29 -27 -9 -35 18 -7 28 -44 13 -45 -8 0 -8 -2 1
-6 6 -2 10 -9 6 -14 -3 -5 3 -9 13 -9 17 -1 17 -2 -1 -15 -17 -13 -18 -15 -3
-15 9 0 17 -3 18 -7 0 -5 2 -27 5 -51 2 -24 -1 -53 -7 -64 -9 -17 -8 -23 6
-31 14 -8 15 -11 4 -18 -9 -5 -10 -9 -2 -9 6 0 9 -8 6 -19 -3 -10 0 -22 6 -25
7 -5 6 -15 -5 -32 -15 -22 -15 -24 0 -24 10 0 14 -5 11 -10 -4 -6 -1 -17 5
-25 10 -12 10 -15 0 -15 -7 0 -10 -6 -7 -12 14 -39 18 -60 10 -55 -5 3 -6 -18
-2 -51 3 -31 3 -66 -1 -77 -4 -11 -5 -26 -3 -32 3 -7 -3 -13 -14 -13 -17 -1
-17 -1 -1 -11 15 -8 17 -22 14 -91 -2 -49 -8 -84 -15 -86 -6 -2 -11 -8 -11
-14 0 -6 8 -7 17 -4 10 4 14 4 10 0 -4 -4 -2 -13 3 -19 8 -9 6 -14 -5 -18 -8
-4 -12 -13 -9 -20 3 -8 -2 -17 -10 -20 -9 -4 -16 -12 -16 -19 0 -10 2 -10 9 1
7 10 10 11 16 1 5 -8 1 -18 -11 -27 -12 -9 -15 -16 -8 -21 13 -8 17 -75 4 -67
-13 8 -9 -59 4 -67 7 -5 7 -8 -2 -8 -10 0 -12 -9 -7 -33 4 -21 3 -27 -3 -18
-5 7 -15 10 -21 6 -9 -5 -8 -10 3 -18 14 -11 14 -16 0 -57 -10 -30 -12 -46 -5
-48 16 -5 13 -22 -4 -22 -18 0 -20 -20 -2 -20 6 0 -1 -12 -16 -25 -15 -14 -24
-25 -19 -25 5 0 10 -11 10 -25 0 -14 -5 -25 -10 -25 -6 0 -7 -7 -4 -16 9 -24
-4 -64 -21 -64 -12 0 -14 -7 -9 -30 3 -20 1 -30 -6 -30 -9 0 -9 -3 -1 -11 13
-13 7 -36 -16 -62 -13 -16 -13 -19 -1 -27 8 -6 10 -10 4 -10 -11 0 -38 -50
-30 -57 2 -2 7 5 11 16 3 12 10 21 16 21 5 0 1 -15 -8 -34 -9 -19 -21 -33 -27
-32 -6 2 -8 1 -5 -1 12 -7 -3 -53 -17 -53 -8 0 -14 -5 -14 -11 0 -6 7 -9 15
-5 8 3 15 1 15 -4 0 -6 -4 -10 -9 -10 -5 0 -12 -14 -16 -30 -4 -17 -11 -30
-16 -30 -6 0 -7 -4 -4 -10 3 -5 -1 -10 -9 -10 -9 0 -17 -8 -18 -17 0 -10 -2
-24 -2 -31 -1 -7 -8 -17 -16 -22 -8 -5 -10 -10 -5 -11 6 0 1 -4 -10 -9 -17 -7
-17 -9 -2 -9 9 -1 17 -5 17 -11 0 -5 -8 -10 -17 -10 -14 0 -15 -2 -5 -9 15 -9
15 -17 -1 -46 -6 -11 -10 -23 -9 -27 1 -4 -13 -5 -31 -1 -29 6 -31 5 -18 -10
12 -15 11 -17 -10 -18 -22 0 -23 -1 -4 -9 11 -5 14 -9 7 -9 -9 -1 -11 -8 -7
-22 5 -15 2 -22 -14 -26 -14 -3 -21 -13 -21 -29 0 -13 -4 -24 -10 -24 -5 0
-10 -9 -10 -21 0 -17 -4 -19 -22 -13 -20 6 -21 5 -10 -9 9 -10 10 -17 2 -22
-6 -3 -8 -11 -5 -16 4 -5 1 -9 -4 -9 -6 0 -11 -7 -11 -15 0 -8 -5 -15 -11 -15
-5 0 -8 -4 -4 -9 3 -5 -2 -16 -11 -25 -8 -9 -12 -20 -9 -26 3 -5 -1 -10 -9
-10 -9 0 -15 -3 -15 -7 3 -20 -3 -57 -8 -45 -9 24 -23 12 -17 -16 3 -16 2 -22
-3 -15 -6 8 -14 9 -23 3 -10 -6 -11 -10 -3 -10 17 0 5 -30 -22 -55 -12 -12
-19 -27 -17 -34 3 -8 0 -11 -7 -7 -6 4 -11 0 -11 -9 0 -10 -5 -13 -12 -9 -7 5
-9 2 -5 -9 4 -10 0 -18 -11 -21 -9 -3 -26 -19 -37 -35 -10 -16 -23 -27 -27
-25 -4 3 -8 -2 -8 -12 0 -17 -44 -64 -61 -64 -5 0 -9 -7 -9 -16 0 -9 -9 -27
-20 -41 -11 -14 -20 -21 -20 -14 0 6 -4 11 -10 11 -5 0 -9 -3 -8 -7 3 -18 -16
-44 -48 -64 -19 -11 -34 -26 -33 -32 3 -17 -12 -47 -23 -47 -5 0 -6 4 -3 10 3
5 2 10 -4 10 -12 0 -41 -28 -41 -41 0 -5 -7 -9 -15 -9 -8 0 -15 -5 -15 -11 0
-5 -4 -8 -8 -5 -4 3 -21 -11 -37 -30 -16 -19 -34 -34 -41 -34 -8 0 -11 -6 -8
-14 7 -17 -47 -29 -59 -13 -5 7 -6 3 -2 -9 7 -26 -17 -48 -44 -41 -14 3 -18 1
-14 -9 4 -10 -3 -14 -21 -14 -14 0 -26 -4 -26 -10 0 -5 5 -10 10 -10 6 0 10
-4 10 -9 0 -5 -8 -7 -18 -4 -10 2 -28 -5 -41 -16 -13 -12 -28 -21 -33 -21 -5
0 -8 -8 -6 -17 2 -10 -4 -19 -12 -19 -8 -1 -20 -2 -27 -3 -7 0 -10 -8 -7 -16
4 -10 0 -13 -14 -10 -11 2 -28 -5 -38 -16 -9 -10 -23 -19 -31 -19 -7 0 -13 -5
-13 -11 0 -5 -4 -8 -9 -4 -6 3 -14 -2 -19 -10 -4 -9 -18 -17 -29 -18 -12 0
-21 -6 -20 -11 1 -6 -3 -10 -9 -11 -6 0 -18 -8 -28 -17 -10 -10 -29 -18 -42
-18 -14 0 -23 -4 -20 -9 3 -5 -10 -12 -29 -15 -19 -4 -35 -11 -35 -16 0 -6 -7
-10 -15 -10 -8 0 -15 -4 -15 -9 0 -9 -48 -26 -62 -23 -5 1 -8 -3 -8 -9 0 -6
-6 -9 -14 -6 -8 3 -16 1 -18 -4 -2 -6 -18 -11 -35 -11 -18 -1 -30 -5 -27 -10
3 -4 -2 -8 -11 -8 -8 0 -18 -6 -21 -13 -2 -7 -21 -14 -42 -15 -20 -2 -42 -9
-49 -18 -7 -10 -13 -12 -18 -4 -3 5 -11 7 -17 4 -6 -4 -5 -10 3 -16 10 -7 8
-8 -8 -5 -13 3 -23 1 -23 -3 0 -12 -40 -24 -67 -21 -13 1 -23 -2 -23 -7 0 -11
-43 -30 -77 -35 -12 -2 -26 -6 -29 -10 -4 -4 -20 -7 -36 -7 -15 0 -28 -3 -28
-7 0 -5 -10 -9 -22 -10 -22 -1 -84 -10 -118 -17 -8 -2 -28 -8 -43 -15 -16 -6
-53 -11 -83 -11 -30 0 -54 -4 -54 -8 0 -5 -17 -9 -37 -10 -100 -5 -187 -13
-202 -20 -9 -5 -55 -8 -103 -8 -47 1 -84 -2 -82 -5 4 -6 -123 -4 -251 5 -164
11 -383 41 -420 56 -19 8 -73 18 -122 23 -13 1 -23 5 -23 9 0 3 -24 11 -52 16
-88 17 -150 37 -141 45 4 5 0 5 -8 2 -9 -3 -65 12 -125 35 -60 23 -126 46
-147 51 -21 5 -45 13 -55 18 -29 15 -132 61 -138 61 -9 0 -178 86 -232 118
-29 18 -57 32 -62 32 -6 0 -10 3 -10 8 0 4 -25 20 -55 37 -30 16 -55 33 -55
37 0 4 -3 7 -7 6 -12 -4 -103 56 -103 67 0 6 25 11 55 12 37 1 55 -2 55 -10 0
-8 3 -7 9 2 13 21 71 23 71 2 0 -11 3 -12 8 -4 4 6 29 14 56 17 52 6 126 42
126 61 0 7 12 24 26 38 14 14 23 30 20 36 -4 5 -2 12 3 16 6 3 8 12 5 19 -3 7
2 19 11 26 8 7 15 20 15 29 0 10 13 44 30 76 16 32 27 62 24 66 -3 5 6 13 20
19 14 5 26 12 26 15 0 4 -4 3 -10 0 -5 -3 -10 1 -10 10 0 9 9 19 20 22 11 3
20 10 20 15 0 5 -4 7 -9 3 -5 -3 -12 -1 -16 5 -3 5 -1 10 5 10 7 0 9 8 5 20
-4 13 -2 20 5 18 7 -2 15 3 18 11 3 8 0 11 -7 7 -6 -4 -11 -2 -11 3 0 6 9 16
19 23 10 6 17 17 14 25 -3 7 4 31 16 53 12 22 21 49 21 60 0 10 5 22 10 25 6
4 8 10 5 15 -3 4 2 10 10 14 8 3 15 14 15 24 0 10 7 27 15 38 8 10 15 29 15
40 0 38 61 163 76 157 13 -5 19 14 15 40 -1 5 3 6 9 2 5 -3 13 1 16 10 5 11 9
13 14 5 4 -6 26 -12 49 -13 30 -1 43 -6 47 -19 7 -22 24 -24 24 -3 0 8 5 15
11 15 6 0 8 -9 4 -20 -6 -18 3 -25 28 -21 4 0 7 -5 7 -13 0 -8 6 -17 13 -19 6
-3 0 -5 -15 -4 -16 1 -28 5 -28 9 0 4 -4 8 -10 8 -21 0 -9 -18 18 -28 25 -9
27 -13 26 -63 -1 -30 4 -57 10 -61 6 -4 -6 -8 -26 -8 -21 0 -38 -5 -38 -11 0
-6 6 -9 14 -6 12 5 12 -1 4 -31 -6 -20 -11 -47 -13 -60 -1 -12 -4 -24 -6 -25
-2 -1 -17 -10 -34 -19 -34 -19 -44 -38 -21 -38 9 0 16 6 16 14 0 10 7 12 23 8
18 -5 19 -7 5 -10 -11 -2 -18 -13 -18 -27 0 -13 -4 -26 -9 -29 -5 -3 -8 0 -7
7 0 6 -3 12 -9 12 -11 0 -11 -3 -13 -57 -1 -21 -7 -38 -13 -38 -7 0 -9 10 -5
27 5 21 4 24 -4 13 -6 -8 -8 -32 -4 -52 5 -34 3 -38 -15 -38 -24 0 -28 -15 -6
-24 8 -3 15 -13 14 -23 0 -16 -1 -16 -7 -2 -8 18 -44 11 -58 -12 -5 -8 -3 -10
6 -4 8 5 11 3 8 -6 -3 -8 -10 -13 -16 -12 -5 1 -8 -7 -4 -19 4 -16 2 -19 -8
-13 -10 6 -12 4 -7 -8 8 -22 -15 -75 -30 -70 -9 3 -13 -8 -15 -34 l-1 -38 -7
45 -7 45 -2 -45 c-1 -33 -4 -41 -11 -30 -8 12 -10 9 -10 -11 0 -19 -5 -26 -16
-25 -9 0 -18 -7 -19 -16 -2 -13 3 -18 18 -18 18 0 22 -6 22 -30 0 -16 -3 -30
-7 -30 -5 0 -8 7 -8 15 0 8 -2 15 -4 15 -2 0 -13 3 -23 7 -17 6 -17 5 1 -15
11 -12 14 -22 9 -22 -18 0 -23 -28 -11 -58 16 -39 12 -92 -8 -106 -15 -11 -13
-12 14 -8 23 3 32 0 32 -10 0 -22 -11 -29 -26 -17 -8 7 -14 7 -19 -1 -10 -16
3 -29 25 -23 27 7 35 40 15 62 -14 17 -14 19 0 25 9 3 15 1 14 -7 -3 -20 12
-47 26 -47 8 0 17 -5 21 -12 4 -7 3 -8 -4 -4 -7 4 -12 1 -12 -7 0 -10 7 -13
20 -10 12 3 20 0 20 -6 0 -7 -7 -11 -16 -9 -11 2 -18 -5 -20 -20 -3 -19 -1
-22 16 -17 21 7 28 -10 8 -18 -8 -4 -6 -6 5 -7 9 -2 23 -3 30 -4 6 -1 20 8 29
19 16 18 17 19 18 2 0 -10 -4 -16 -9 -13 -13 9 -19 -15 -10 -44 4 -14 7 -20 8
-14 2 18 35 11 43 -9 4 -9 21 -20 38 -24 22 -4 29 -10 25 -21 -8 -22 5 -54 20
-48 8 3 15 1 17 -3 2 -5 14 -12 28 -16 24 -7 25 -7 5 9 -19 15 -17 16 19 1 45
-18 49 -18 41 -5 -3 6 0 10 7 10 10 0 9 3 -2 10 -8 5 -11 12 -7 16 4 4 2 13
-4 21 -6 7 -7 13 -2 13 17 0 36 -48 30 -76 l-5 -28 19 25 18 24 -2 -27 c-1
-15 3 -26 8 -25 9 2 11 6 14 34 1 8 15 7 54 -3 60 -16 70 -17 64 -6 -3 4 1 13
9 20 8 7 14 8 14 2 0 -5 6 -9 13 -7 6 1 11 -3 10 -9 -3 -17 34 -5 41 13 3 8
10 12 16 8 6 -4 7 5 4 23 -5 25 -2 31 17 37 22 7 22 8 3 22 -13 10 -14 14 -4
11 9 -2 15 2 15 7 0 6 -3 9 -7 8 -5 -2 -8 4 -8 12 0 13 3 13 20 3 11 -7 18
-19 15 -26 -3 -8 -5 -20 -5 -28 0 -8 -7 -14 -15 -14 -8 0 -15 -5 -15 -11 0 -5
4 -8 9 -4 6 3 14 -2 19 -11 7 -13 11 -14 17 -3 5 7 4 14 -3 17 -6 2 -9 9 -6
17 3 8 12 11 19 9 8 -3 11 -12 8 -20 -3 -10 0 -12 10 -8 9 3 13 13 9 26 -4 15
-2 19 7 13 10 -5 11 -2 6 14 -5 15 -2 21 9 21 9 0 16 -5 16 -12 0 -6 3 -8 6
-5 4 4 2 13 -4 20 -7 8 -8 17 -4 22 4 4 -3 2 -15 -4 -13 -6 -23 -20 -23 -31 0
-21 -16 -35 -24 -21 -4 5 0 12 6 14 10 4 9 8 -2 16 -13 9 -13 11 3 11 9 0 17
7 17 16 0 8 4 13 9 9 5 -3 13 -1 16 5 5 8 11 7 21 -1 11 -9 14 -8 14 3 0 8 -5
19 -12 26 -7 7 -8 12 -2 12 6 0 19 -9 29 -20 24 -27 35 -25 35 4 0 18 -8 27
-27 34 l-28 9 24 8 c18 5 28 3 36 -9 19 -25 22 -19 15 29 -7 48 -5 55 18 55
16 0 63 46 55 53 -2 3 5 8 18 12 17 6 19 9 8 16 -11 7 -10 9 4 9 10 0 16 4 13
9 -3 5 6 30 19 57 14 27 25 53 25 57 0 4 9 29 21 55 11 26 24 56 29 67 5 11
14 37 20 58 6 20 15 37 20 37 7 0 20 43 25 82 1 10 8 25 16 34 7 9 14 22 15
29 7 45 27 86 41 81 8 -3 11 -1 8 4 -6 9 18 90 33 114 3 6 8 21 10 33 3 26 27
75 33 68 3 -2 16 30 29 71 13 41 27 77 32 80 4 3 8 12 8 20 0 20 41 64 59 63
11 0 12 -2 4 -6 -18 -7 -16 -23 2 -23 8 0 15 8 15 18 0 14 2 15 10 2 8 -13 10
-12 11 5 1 16 2 17 6 3 2 -9 -1 -26 -7 -37 -9 -17 -8 -20 5 -15 8 4 15 10 15
15 0 5 7 9 16 9 10 0 14 -6 10 -15 -3 -9 0 -15 9 -15 8 0 15 -4 15 -10 0 -5 5
-10 10 -10 6 0 10 7 10 16 0 9 6 14 13 11 6 -2 11 -10 10 -16 -4 -14 14 -14
22 0 5 7 13 4 26 -7 15 -14 21 -14 34 -4 12 10 15 10 15 -4 0 -9 5 -16 10 -16
6 0 10 4 10 8 0 14 53 8 58 -6 2 -7 8 -10 13 -6 5 3 9 -1 9 -8 0 -9 3 -9 10 2
5 8 10 10 10 4 0 -7 10 -12 23 -12 12 0 39 -3 61 -7 31 -7 40 -5 48 9 8 15 11
15 25 1 12 -13 13 -18 3 -31 -15 -17 -10 -26 9 -15 8 5 14 19 15 32 1 18 6 23
22 21 12 -2 24 3 27 11 4 10 -2 13 -21 10 l-27 -3 24 10 c14 6 36 9 50 7 14
-2 20 -2 13 0 -10 4 -10 8 -1 19 9 11 8 14 -2 14 -10 1 -9 4 3 14 10 7 15 16
11 19 -3 4 -1 7 6 7 7 0 9 5 6 10 -3 6 -1 10 5 10 7 0 10 7 6 15 -3 8 -2 15 3
15 5 0 12 -12 16 -27 l8 -28 8 28 c4 16 5 34 3 42 -4 9 3 11 23 9 15 -2 20 -1
11 2 -22 7 -22 10 1 42 10 15 18 30 17 35 0 4 11 22 25 40 42 53 76 127 223
486 76 184 89 238 61 261 -11 9 -97 12 -340 11 -179 0 -330 -3 -336 -6 -20
-13 -29 7 -15 33 20 37 64 137 88 197 11 27 23 54 28 60 4 5 13 30 20 55 6 25
24 72 40 105 15 33 34 75 42 93 7 17 16 33 20 33 18 3 24 5 43 16 11 6 39 10
63 10 23 -1 42 3 43 8 0 6 4 1 9 -10 5 -11 9 -14 9 -7 1 7 6 10 11 7 6 -4 7
-11 4 -17 -4 -7 0 -7 12 -1 17 8 55 10 69 3 3 -1 8 -3 13 -4 4 -1 12 -4 17 -8
6 -3 27 -9 48 -13 20 -4 37 -11 37 -16 0 -17 20 -9 21 9 1 15 2 15 6 1 3 -13
12 -16 40 -12 21 3 38 0 43 -6 4 -8 14 -9 31 -2 14 5 39 7 57 5 30 -3 33 -2
27 19 -4 14 -3 18 3 9 5 -7 16 -10 26 -6 29 11 79 61 72 73 -7 11 28 34 38 24
3 -3 6 -1 6 5 0 7 7 12 15 12 8 0 15 4 15 8 0 5 32 15 70 22 39 7 74 18 79 24
5 6 31 65 59 131 28 66 71 165 97 220 26 55 55 118 65 140 37 79 81 214 78
237 l-3 23 -200 -4 c-364 -8 -580 -7 -598 2 -14 6 -16 12 -7 22 6 7 10 17 8
21 -4 16 14 74 22 74 5 0 15 19 22 43 6 23 21 58 31 77 11 19 26 58 34 85 8
28 27 77 43 110 16 33 45 103 65 155 20 52 40 104 45 115 5 11 14 38 21 60 6
22 20 58 30 80 17 40 55 128 111 260 16 38 32 88 35 111 10 73 8 74 -357 69
l-314 -5 -39 -39 c-21 -22 -47 -43 -58 -46 -10 -4 -19 -10 -19 -15 0 -5 -26
-17 -57 -27 -56 -17 -67 -23 -98 -50 -7 -7 -20 -10 -28 -7 -9 3 -17 -3 -22
-18 -17 -50 -23 -62 -24 -50 -1 7 -6 10 -11 7 -6 -4 -7 -11 -4 -17 4 -6 1 -13
-5 -17 -8 -6 -9 -15 -2 -34 6 -15 7 -27 2 -27 -5 0 -11 6 -14 13 -2 6 -7 -7
-11 -30 -4 -23 -5 -47 -1 -53 3 -5 1 -10 -4 -10 -6 0 -11 -6 -11 -13 0 -8 -9
-22 -21 -32 -16 -16 -19 -26 -14 -57 5 -29 3 -38 -8 -38 -13 0 -37 -59 -37
-93 0 -9 -10 -25 -22 -37 -18 -17 -19 -20 -5 -20 9 0 17 -4 17 -10 0 -5 -5
-10 -11 -10 -5 0 -7 -5 -4 -10 4 -6 1 -9 -7 -8 -7 2 -13 -4 -14 -12 0 -8 -6
-28 -13 -45 -7 -16 -13 -42 -13 -57 -1 -15 -7 -29 -14 -32 -8 -3 -11 -12 -8
-21 4 -8 2 -21 -3 -28 -5 -6 -18 -34 -28 -61 -12 -34 -20 -44 -26 -35 -7 11
-9 10 -9 -3 0 -9 4 -19 9 -23 6 -3 9 -14 8 -25 -1 -10 -5 -16 -9 -14 -4 3 -8
-3 -8 -13 0 -10 -9 -29 -20 -43 -11 -14 -20 -31 -20 -37 0 -7 -7 -13 -15 -13
-8 0 -15 -5 -15 -11 0 -5 5 -7 11 -3 7 4 10 1 7 -6 -2 -8 -13 -18 -24 -24 -10
-6 -22 -15 -26 -20 -8 -12 -439 -19 -455 -8 -10 6 -10 13 0 32 7 14 19 45 26
70 14 47 34 98 56 140 7 14 32 75 55 135 34 89 217 553 249 630 38 90 81 227
81 255 0 12 -7 21 -17 21 -10 1 -164 1 -343 0 l-325 -2 -50 -54 c-28 -30 -56
-55 -62 -55 -7 0 -18 -8 -25 -18 -7 -10 -28 -24 -45 -31 -18 -7 -31 -17 -28
-21 3 -5 -4 -6 -15 -3 -14 4 -20 0 -20 -11 0 -10 -5 -14 -10 -11 -17 11 -48
-5 -53 -26 -3 -12 -10 -18 -16 -14 -6 3 -11 -1 -11 -9 0 -9 -6 -16 -14 -16 -7
0 -16 -8 -20 -17 -3 -10 -10 -28 -16 -40 -5 -13 -6 -23 -2 -23 4 0 13 15 21
33 12 32 12 32 22 8 5 -13 7 -26 4 -29 -3 -3 -5 0 -5 7 0 7 -4 9 -10 6 -5 -3
-10 -21 -10 -39 0 -18 -3 -36 -7 -40 -8 -8 -10 -14 -12 -47 0 -11 -5 -18 -10
-15 -5 3 -8 -9 -6 -27 3 -43 -3 -56 -25 -52 -12 2 -19 -2 -19 -13 0 -9 -2 -26
-5 -37 -2 -11 -5 -30 -5 -43 -1 -15 -5 -21 -13 -16 -8 5 -9 2 -5 -9 4 -12 1
-17 -11 -18 -9 0 -12 -3 -5 -5 9 -4 9 -13 2 -31 -5 -14 -7 -34 -4 -44 4 -11 2
-19 -3 -19 -6 0 -13 -18 -17 -40 -4 -23 -12 -40 -20 -40 -8 0 -12 -8 -9 -22 2
-13 2 -17 -2 -10 -3 6 -10 10 -15 6 -5 -3 -6 -11 -2 -17 11 -17 12 -67 2 -67
-5 0 -9 5 -9 10 0 6 -5 10 -10 10 -7 0 -7 -6 -1 -19 9 -15 7 -20 -9 -24 -11
-3 -20 -10 -20 -16 0 -6 6 -8 14 -5 10 4 12 -2 9 -21 -5 -24 -6 -24 -19 -8
-12 17 -13 16 -14 -7 0 -14 -7 -36 -15 -50 -8 -14 -14 -35 -15 -48 0 -13 -4
-20 -10 -17 -6 4 -10 -5 -10 -19 0 -17 -6 -26 -16 -26 -14 0 -14 -2 0 -22 14
-20 13 -22 -12 -37 -22 -12 -75 -16 -295 -18 l-267 -2 -55 -44 c-30 -25 -51
-47 -48 -51 4 -3 1 -6 -5 -6 -7 0 -12 -7 -12 -15 0 -8 -4 -15 -9 -15 -24 0
-71 -64 -86 -117 -4 -15 -11 -20 -22 -16 -12 5 -15 2 -10 -10 7 -18 -15 -41
-29 -29 -4 4 -3 0 4 -9 10 -14 10 -20 -1 -31 -8 -7 -20 -38 -27 -68 -11 -45
-15 -51 -22 -35 -6 15 -7 11 -3 -12 2 -19 0 -33 -6 -33 -6 0 -7 5 -4 10 3 6 2
10 -3 10 -5 0 -7 -20 -4 -45 3 -28 0 -50 -8 -59 -16 -20 -15 -103 1 -122 10
-13 10 -17 -2 -25 -23 -14 36 -55 101 -69 30 -7 68 -16 84 -21 15 -5 40 -6 53
-3 15 4 28 2 33 -5 4 -7 34 -14 66 -15 78 -4 144 -16 144 -27 0 -5 9 -9 20 -9
11 0 20 -5 20 -10 0 -6 8 -10 18 -8 14 3 17 -5 16 -52 -1 -72 -11 -134 -23
-138 -6 -2 -7 -10 -4 -18 3 -9 -2 -14 -13 -15 -11 0 -14 -3 -8 -5 9 -4 8 -13
-3 -34 -8 -17 -11 -34 -8 -40 3 -6 -1 -18 -10 -27 -9 -9 -14 -24 -12 -35 3
-10 1 -16 -4 -13 -4 3 -11 -7 -15 -22 -18 -80 -38 -139 -52 -153 -13 -12 -60
-16 -293 -20 l-278 -5 -30 -29 c-17 -16 -28 -34 -24 -39 3 -6 2 -8 -3 -5 -5 3
-17 -3 -26 -14 -10 -10 -15 -18 -12 -18 4 0 1 -6 -5 -13 -6 -8 -8 -17 -4 -20
3 -4 -2 -7 -13 -7 -18 0 -44 -39 -44 -68 0 -8 -5 -10 -12 -6 -8 5 -7 0 2 -11
13 -17 13 -18 0 -13 -17 6 -52 -14 -49 -28 3 -13 -12 -46 -29 -66 -10 -12 -11
-18 -4 -18 7 0 12 -4 12 -10 0 -5 -3 -9 -7 -9 -5 1 -15 1 -23 0 -13 -1 -13 -2
0 -11 13 -8 12 -10 -4 -10 -12 0 -16 -5 -12 -15 3 -9 -2 -20 -13 -26 -11 -8
-17 -21 -14 -38 2 -14 0 -20 -3 -13 -3 6 -10 9 -15 6 -6 -3 -5 -11 2 -20 8
-10 8 -14 0 -14 -6 0 -17 -11 -23 -25 -6 -14 -17 -25 -24 -25 -8 0 -13 -10
-12 -22 1 -13 -2 -33 -6 -45 -4 -13 -3 -23 2 -23 6 0 8 -9 5 -20 -4 -15 0 -20
13 -21 17 -1 17 -2 2 -6 -22 -6 -22 -11 -1 -53 14 -30 17 -32 24 -14 6 16 8
15 14 -11 12 -52 14 -55 36 -55 14 0 19 -5 16 -14 -4 -11 4 -13 36 -10 23 2
34 1 25 -2 -27 -8 -21 -22 7 -16 17 3 25 0 25 -9 0 -11 3 -11 11 1 8 11 12 12
16 3 2 -7 13 -13 24 -13 13 0 19 -6 17 -17 -2 -11 5 -19 17 -21 15 -2 17 -1 6
6 -10 7 -10 11 -1 17 10 6 39 -20 40 -37 0 -4 10 -8 23 -10 18 -2 21 -8 19
-32 -2 -16 3 -33 10 -38 9 -7 6 -8 -9 -5 -13 3 -26 1 -29 -4 -3 -5 4 -9 15 -9
25 0 29 -41 7 -59 -8 -7 -12 -21 -9 -31 3 -11 0 -27 -7 -35 -10 -12 -10 -15 1
-15 10 -1 9 -4 -4 -14 -9 -7 -17 -25 -17 -39 0 -21 4 -25 17 -20 14 4 13 2 -3
-10 -14 -11 -20 -25 -18 -46 2 -31 -9 -42 -20 -18 -3 6 -4 -1 -1 -16 4 -19 2
-26 -5 -22 -6 3 -10 -3 -10 -14 0 -12 -4 -21 -10 -21 -5 0 -6 7 -3 17 4 11 3
14 -6 9 -7 -5 -10 -14 -7 -22 3 -8 1 -24 -4 -36 -7 -18 -9 -19 -9 -5 -1 30
-16 18 -18 -16 -5 -76 -9 -92 -21 -100 -7 -5 -10 -12 -7 -18 4 -5 1 -9 -4 -9
-6 0 -11 5 -11 10 0 6 -5 10 -11 10 -7 0 -9 -10 -5 -25 7 -29 -1 -31 -34 -8
-35 24 -60 51 -60 64 0 6 -7 9 -14 6 -10 -4 -13 -1 -9 9 3 8 -1 14 -9 14 -14
0 -28 14 -88 91 -14 17 -35 43 -47 57 -13 14 -23 29 -23 33 0 4 -11 20 -25 35
-14 15 -36 41 -48 57 -12 16 -28 35 -34 42 -7 8 -13 18 -13 23 0 5 -9 17 -20
27 -11 10 -20 22 -20 27 0 5 -11 24 -23 41 -13 18 -30 47 -37 65 -7 17 -16 32
-20 32 -4 0 -10 10 -14 23 -3 12 -23 52 -46 89 -22 37 -40 72 -40 78 0 6 -11
28 -25 50 -14 22 -23 40 -21 40 2 0 -8 26 -23 58 -34 69 -66 162 -63 180 2 6
-1 12 -7 12 -8 0 -23 43 -25 72 -1 3 -4 10 -8 14 -5 4 -8 16 -8 26 0 10 -4 18
-8 18 -5 0 -14 24 -20 53 -6 28 -24 102 -41 162 -29 104 -59 256 -66 335 -2
19 -7 58 -12 85 -10 64 -10 531 0 654 4 51 15 132 23 180 8 47 18 106 21 131
3 25 16 84 29 132 13 48 25 95 27 105 1 10 5 23 8 28 4 6 10 28 13 50 4 22 14
50 22 63 8 12 12 27 9 32 -3 6 -1 10 4 10 6 0 11 14 11 30 0 17 4 30 9 30 8 0
18 22 26 59 12 50 18 70 32 101 17 41 70 148 82 170 9 15 49 101 71 150 5 14
19 39 30 55 11 17 25 41 32 54 7 13 25 37 40 53 25 27 29 35 27 54 0 3 11 16
25 29 14 13 26 29 26 35 0 5 5 10 11 10 5 0 8 3 6 8 -7 10 19 32 29 24 4 -4 4
-2 1 4 -4 6 4 23 18 38 13 14 21 26 17 26 -4 0 1 5 11 11 9 6 15 14 12 20 -4
5 -1 9 4 9 6 0 11 6 11 14 0 8 7 17 16 20 8 3 13 10 10 14 -3 4 7 17 20 27 14
10 32 32 40 47 8 15 21 28 29 28 8 0 15 4 15 9 0 15 164 181 179 181 7 0 9 5
6 10 -3 6 1 13 9 16 9 3 13 11 9 17 -4 6 0 8 10 4 9 -3 19 -1 23 5 4 7 3 8 -4
4 -8 -4 -10 -2 -6 8 3 8 12 12 20 9 8 -3 14 1 14 10 0 9 9 19 20 22 11 4 18
11 15 16 -4 5 -1 9 5 9 6 0 29 19 52 41 23 23 59 53 80 66 21 14 38 32 38 39
0 8 6 14 14 14 7 0 38 20 68 45 30 25 60 45 66 45 6 0 12 4 14 9 2 5 10 11 18
13 18 4 35 17 62 46 12 12 25 22 29 22 13 0 114 49 194 95 71 40 194 102 250
125 11 5 41 18 67 29 26 12 50 21 54 21 4 0 25 9 48 19 59 27 227 80 265 83
18 1 35 6 37 10 3 4 18 8 33 8 16 0 47 7 70 15 24 8 64 17 89 21 26 3 50 8 54
11 13 7 180 31 268 38 47 4 86 8 87 9 6 6 454 -1 513 -8z m2407 -298 c-3 -8
-6 -5 -6 6 -1 11 2 17 5 13 3 -3 4 -12 1 -19z m1523 -769 c0 -20 -15 -26 -25
-9 -9 15 3 43 15 35 5 -3 10 -15 10 -26z m-3533 -521 c-3 -8 -6 -5 -6 6 -1 11
2 17 5 13 3 -3 4 -12 1 -19z m-214 -633 c-3 -9 -8 -14 -10 -11 -3 3 -2 9 2 15
9 16 15 13 8 -4z m2667 -95 c0 -5 -4 -10 -10 -10 -5 0 -10 5 -10 10 0 6 5 10
10 10 6 0 10 -4 10 -10z m18 -135 c-3 -3 -9 2 -12 12 -6 14 -5 15 5 6 7 -7 10
-15 7 -18z m1141 -844 c15 -23 15 -24 -5 -13 -11 6 -27 18 -35 28 -12 14 -11
16 5 13 10 -2 26 -15 35 -28z m-4679 -24 c8 -1 20 -6 27 -10 6 -4 19 -4 29 0
11 4 15 3 11 -4 -4 -7 11 -11 41 -11 26 -1 48 -6 50 -12 2 -5 8 -8 13 -4 5 3
9 -3 10 -13 0 -11 3 -13 6 -5 7 19 60 -16 68 -45 3 -13 12 -23 20 -23 20 0 19
-6 -3 -28 -14 -14 -18 -31 -17 -66 2 -35 -1 -46 -10 -42 -9 3 -12 -3 -10 -20
1 -14 -4 -32 -12 -40 -13 -12 -12 -14 4 -15 17 -1 17 -2 1 -6 -17 -4 -23 -19
-20 -55 1 -12 -3 -15 -16 -11 -15 6 -16 5 -2 -12 11 -14 12 -19 3 -22 -7 -3
-13 -13 -13 -24 0 -11 -7 -22 -15 -25 -12 -5 -13 -10 -4 -20 8 -10 8 -14 1
-14 -6 0 -9 -7 -6 -15 4 -8 -1 -17 -9 -21 -9 -3 -13 -12 -10 -20 3 -8 -1 -14
-8 -14 -12 0 -12 -2 -1 -9 10 -6 7 -10 -12 -15 -15 -4 -24 -10 -22 -15 5 -7
-429 -18 -476 -12 -4 1 16 49 43 109 82 176 109 238 109 246 0 3 11 29 25 58
13 29 34 78 45 108 30 77 52 124 63 131 8 6 60 4 97 -4z m4870 -119 c-28 -22
-54 -38 -57 -35 -11 12 28 57 60 71 52 22 51 7 -3 -36z m-239 -664 c11 -14 10
-15 -11 -12 -13 1 -25 9 -28 16 -5 17 23 15 39 -4z m365 -243 c-4 -5 0 -12 6
-14 8 -4 9 -6 2 -6 -6 -1 -17 6 -24 14 -10 12 -9 15 4 15 10 0 15 -4 12 -9z
m-7109 -233 c-3 -8 -6 -5 -6 6 -1 11 2 17 5 13 3 -3 4 -12 1 -19z m6083 -266
c19 -12 29 -22 22 -22 -18 0 -102 50 -102 60 0 9 22 -1 80 -38z m-4493 -84
c-3 -8 -6 -5 -6 6 -1 11 2 17 5 13 3 -3 4 -12 1 -19z m1253 -14 c0 -8 -5 -12
-10 -9 -6 4 -8 11 -5 16 9 14 15 11 15 -7z m-1205 -34 c3 -5 1 -10 -4 -10 -6
0 -11 5 -11 10 0 6 2 10 4 10 3 0 8 -4 11 -10z m1315 0 c0 -5 -4 -10 -10 -10
-5 0 -10 5 -10 10 0 6 5 10 10 10 6 0 10 -4 10 -10z m-1386 -246 c3 -8 2 -12
-4 -9 -6 3 -10 10 -10 16 0 14 7 11 14 -7z m5486 -69 c0 -8 -2 -15 -4 -15 -2
0 -6 7 -10 15 -3 8 -1 15 4 15 6 0 10 -7 10 -15z m-1423 -330 c69 -45 113 -79
108 -83 -6 -6 -76 40 -134 88 -33 28 -20 25 26 -5z m286 -239 c6 -16 -2 -28
-14 -20 -12 7 -11 34 0 34 5 0 11 -6 14 -14z m-4673 -47 c0 -6 -4 -7 -10 -4
-5 3 -10 11 -10 16 0 6 5 7 10 4 6 -3 10 -11 10 -16z m54 -75 c3 -8 2 -12 -4
-9 -6 3 -10 10 -10 16 0 14 7 11 14 -7z m47 -31 c13 -16 12 -17 -3 -4 -10 7
-18 15 -18 17 0 8 8 3 21 -13z m789 -138 c0 -5 -5 -3 -10 5 -5 8 -10 20 -10
25 0 6 5 3 10 -5 5 -8 10 -19 10 -25z m3715 -5 c3 -6 -1 -7 -9 -4 -18 7 -21
14 -7 14 6 0 13 -4 16 -10z m-3925 -60 c0 -5 -4 -10 -10 -10 -5 0 -10 5 -10
10 0 6 5 10 10 10 6 0 10 -4 10 -10z m4065 -30 c3 -6 -1 -7 -9 -4 -18 7 -21
14 -7 14 6 0 13 -4 16 -10z m-4418 -21 c-4 -13 0 -22 11 -27 17 -6 48 -32 39
-32 -3 0 -22 8 -43 17 -22 9 -42 16 -46 15 -11 -3 -10 16 1 22 5 4 12 0 14 -6
4 -8 8 -4 12 10 9 28 19 29 12 1z m330 -20 c2 -12 -1 -18 -7 -14 -5 3 -10 1
-10 -4 0 -6 -5 -11 -11 -11 -8 0 -8 4 0 14 6 8 11 18 10 22 -1 5 -1 13 0 18 2
15 15 -3 18 -25z m4196 -27 c20 -14 35 -27 33 -29 -6 -6 -112 62 -122 79 -8
12 1 7 89 -50z m-4253 44 c0 -2 -7 -6 -15 -10 -8 -3 -15 -1 -15 4 0 6 7 10 15
10 8 0 15 -2 15 -4z m5265 -36 c0 -38 -39 -35 -43 3 -3 25 0 28 20 25 17 -2
23 -9 23 -28z m-5415 4 c0 -8 -5 -12 -10 -9 -6 4 -8 11 -5 16 9 14 15 11 15
-7z m113 10 c9 -3 12 -14 9 -29 -2 -14 -9 -22 -14 -19 -5 3 -7 13 -3 22 3 8 0
19 -7 24 -15 9 -6 11 15 2z m5192 -23 c3 -5 1 -12 -5 -16 -5 -3 -10 1 -10 9 0
18 6 21 15 7z m-5228 -7 c-3 -3 -12 -4 -19 -1 -8 3 -5 6 6 6 11 1 17 -2 13 -5z
m4398 -42 c-3 -3 -11 0 -18 7 -9 10 -8 11 6 5 10 -3 15 -9 12 -12z m121 -73
c4 -8 1 -8 -14 0 -12 6 -24 16 -28 22 -4 8 -1 8 14 0 12 -6 24 -16 28 -22z
m739 1 c3 -5 -3 -10 -15 -10 -12 0 -18 5 -15 10 3 6 10 10 15 10 5 0 12 -4 15
-10z m-900 -450 c3 -5 2 -10 -4 -10 -5 0 -13 5 -16 10 -3 6 -2 10 4 10 5 0 13
-4 16 -10z m15 -60 c0 -5 -7 -10 -16 -10 -8 0 -12 5 -9 10 3 6 10 10 16 10 5
0 9 -4 9 -10z m-340 -755 c0 -9 -6 -12 -15 -9 -8 4 -12 10 -9 15 8 14 24 10
24 -6z m-3420 -520 c0 -21 -28 -31 -43 -16 -9 9 -8 14 3 21 22 14 40 12 40 -5z"/>
<path d="M4705 6540 c3 -5 11 -10 16 -10 6 0 7 5 4 10 -3 6 -11 10 -16 10 -6
0 -7 -4 -4 -10z"/>
<path d="M4612 6260 c0 -14 2 -19 5 -12 2 6 2 18 0 25 -3 6 -5 1 -5 -13z"/>
<path d="M8460 6166 c0 -2 7 -7 16 -10 8 -3 12 -2 9 4 -6 10 -25 14 -25 6z"/>
<path d="M3521 5214 c0 -11 3 -14 6 -6 3 7 2 16 -1 19 -3 4 -6 -2 -5 -13z"/>
<path d="M8478 3758 c5 -5 16 -8 23 -6 8 3 3 7 -10 11 -17 4 -21 3 -13 -5z"/>
<path d="M8328 3403 c7 -3 16 -2 19 1 4 3 -2 6 -13 5 -11 0 -14 -3 -6 -6z"/>
<path d="M6090 3220 c0 -5 5 -10 10 -10 6 0 10 5 10 10 0 6 -4 10 -10 10 -5 0
-10 -4 -10 -10z"/>
<path d="M6130 3205 c0 -8 5 -15 10 -15 6 0 10 7 10 15 0 8 -4 15 -10 15 -5 0
-10 -7 -10 -15z"/>
<path d="M6310 3200 c-9 -6 -10 -10 -3 -10 6 0 15 5 18 10 8 12 4 12 -15 0z"/>
<path d="M6230 3141 c0 -6 4 -13 10 -16 6 -3 7 1 4 9 -7 18 -14 21 -14 7z"/>
<path d="M8175 3120 c3 -5 8 -10 11 -10 2 0 4 5 4 10 0 6 -5 10 -11 10 -5 0
-7 -4 -4 -10z"/>
<path d="M4511 3054 c0 -11 3 -14 6 -6 3 7 2 16 -1 19 -3 4 -6 -2 -5 -13z"/>
<path d="M8120 3020 c0 -5 5 -10 10 -10 6 0 10 5 10 10 0 6 -4 10 -10 10 -5 0
-10 -4 -10 -10z"/>
<path d="M4410 2804 c0 -8 5 -12 10 -9 6 4 8 11 5 16 -9 14 -15 11 -15 -7z"/>
<path d="M6006 2717 c3 -10 9 -15 12 -12 3 3 0 11 -7 18 -10 9 -11 8 -5 -6z"/>
<path d="M7521 2704 c0 -11 3 -14 6 -6 3 7 2 16 -1 19 -3 4 -6 -2 -5 -13z"/>
<path d="M4311 2703 c-1 -17 16 -25 25 -12 4 7 3 9 -4 5 -5 -3 -13 0 -15 6 -4
9 -6 10 -6 1z"/>
<path d="M6030 2700 c0 -5 5 -10 10 -10 6 0 10 5 10 10 0 6 -4 10 -10 10 -5 0
-10 -4 -10 -10z"/>
<path d="M6536 2687 c3 -10 9 -15 12 -12 3 3 0 11 -7 18 -10 9 -11 8 -5 -6z"/>
<path d="M6071 2664 c0 -11 3 -14 6 -6 3 7 2 16 -1 19 -3 4 -6 -2 -5 -13z"/>
<path d="M7385 2670 c-3 -5 -1 -10 4 -10 6 0 11 5 11 10 0 6 -2 10 -4 10 -3 0
-8 -4 -11 -10z"/>
<path d="M6500 2660 c0 -5 5 -10 10 -10 6 0 10 5 10 10 0 6 -4 10 -10 10 -5 0
-10 -4 -10 -10z"/>
<path d="M6020 2651 c0 -6 4 -13 10 -16 6 -3 7 1 4 9 -7 18 -14 21 -14 7z"/>
<path d="M4316 2634 c-9 -24 -7 -27 9 -10 17 17 19 26 6 26 -5 0 -12 -7 -15
-16z"/>
<path d="M6358 2643 c7 -3 16 -2 19 1 4 3 -2 6 -13 5 -11 0 -14 -3 -6 -6z"/>
<path d="M6837 2639 c7 -7 15 -10 18 -7 3 3 -2 9 -12 12 -14 6 -15 5 -6 -5z"/>
<path d="M6480 2630 c0 -5 5 -10 11 -10 5 0 7 5 4 10 -3 6 -8 10 -11 10 -2 0
-4 -4 -4 -10z"/>
<path d="M6955 2630 c3 -5 8 -10 11 -10 2 0 4 5 4 10 0 6 -5 10 -11 10 -5 0
-7 -4 -4 -10z"/>
<path d="M5850 2620 c0 -5 5 -10 10 -10 6 0 10 5 10 10 0 6 -4 10 -10 10 -5 0
-10 -4 -10 -10z"/>
<path d="M6218 2623 c7 -3 16 -2 19 1 4 3 -2 6 -13 5 -11 0 -14 -3 -6 -6z"/>
<path d="M6385 2610 c-3 -5 1 -10 9 -10 9 0 16 5 16 10 0 6 -4 10 -9 10 -6 0
-13 -4 -16 -10z"/>
<path d="M6445 2600 c-3 -5 -2 -10 4 -10 5 0 13 5 16 10 3 6 2 10 -4 10 -5 0
-13 -4 -16 -10z"/>
<path d="M6670 2600 c0 -5 5 -10 10 -10 6 0 10 5 10 10 0 6 -4 10 -10 10 -5 0
-10 -4 -10 -10z"/>
<path d="M7120 2591 c0 -5 5 -13 10 -16 6 -3 10 -2 10 4 0 5 -4 13 -10 16 -5
3 -10 2 -10 -4z"/>
<path d="M4261 2574 c0 -11 3 -14 6 -6 3 7 2 16 -1 19 -3 4 -6 -2 -5 -13z"/>
<path d="M6081 2564 c0 -11 3 -14 6 -6 3 7 2 16 -1 19 -3 4 -6 -2 -5 -13z"/>
<path d="M7005 2571 c-3 -5 -1 -12 5 -16 5 -3 10 1 10 9 0 18 -6 21 -15 7z"/>
<path d="M5994 2550 c0 -13 4 -16 10 -10 7 7 7 13 0 20 -6 6 -10 3 -10 -10z"/>
<path d="M6105 2561 c-3 -7 -1 -10 6 -9 7 2 14 -6 16 -17 3 -17 2 -17 -7 -5
-8 12 -9 9 -4 -12 5 -23 2 -29 -17 -37 -14 -5 -29 -5 -35 0 -11 9 -24 2 -24
-14 0 -5 13 -7 30 -4 28 6 57 -12 32 -21 -7 -2 -12 -8 -12 -13 0 -5 9 -4 20 3
23 14 26 34 8 41 -9 4 -8 6 2 6 10 1 15 12 15 35 0 38 -18 66 -30 47z"/>
<path d="M6292 2561 c2 -7 7 -12 11 -12 12 1 9 15 -3 20 -7 2 -11 -2 -8 -8z"/>
<path d="M7057 2545 c17 -23 33 -32 33 -19 0 7 -40 44 -47 44 -2 0 4 -11 14
-25z"/>
<path d="M4241 2544 c0 -11 3 -14 6 -6 3 7 2 16 -1 19 -3 4 -6 -2 -5 -13z"/>
<path d="M5811 2544 c0 -11 3 -14 6 -6 3 7 2 16 -1 19 -3 4 -6 -2 -5 -13z"/>
<path d="M6455 2550 c3 -5 8 -10 11 -10 2 0 4 5 4 10 0 6 -5 10 -11 10 -5 0
-7 -4 -4 -10z"/>
<path d="M6538 2553 c7 -3 16 -2 19 1 4 3 -2 6 -13 5 -11 0 -14 -3 -6 -6z"/>
<path d="M6738 2553 c7 -3 16 -2 19 1 4 3 -2 6 -13 5 -11 0 -14 -3 -6 -6z"/>
<path d="M6795 2550 c3 -5 8 -10 11 -10 2 0 4 5 4 10 0 6 -5 10 -11 10 -5 0
-7 -4 -4 -10z"/>
<path d="M6173 2536 c3 -7 1 -18 -5 -24 -6 -6 -6 -12 2 -17 7 -4 14 1 17 14 5
19 7 20 17 5 11 -14 15 -14 46 0 31 14 32 15 10 14 -14 0 -38 4 -53 10 -36 15
-40 15 -34 -2z"/>
<path d="M6385 2540 c3 -5 8 -10 11 -10 2 0 4 5 4 10 0 6 -5 10 -11 10 -5 0
-7 -4 -4 -10z"/>
<path d="M7537 2539 c7 -7 15 -10 18 -7 3 3 -2 9 -12 12 -14 6 -15 5 -6 -5z"/>
<path d="M7025 2530 c3 -5 8 -10 11 -10 2 0 4 5 4 10 0 6 -5 10 -11 10 -5 0
-7 -4 -4 -10z"/>
<path d="M6545 2520 c3 -5 16 -10 28 -9 21 0 21 1 2 9 -28 12 -37 12 -30 0z"/>
<path d="M6860 2520 c0 -5 5 -10 10 -10 6 0 10 5 10 10 0 6 -4 10 -10 10 -5 0
-10 -4 -10 -10z"/>
<path d="M6975 2520 c3 -5 14 -10 23 -10 15 0 15 2 2 10 -20 13 -33 13 -25 0z"/>
<path d="M7585 2520 c-3 -5 -1 -10 4 -10 6 0 11 5 11 10 0 6 -2 10 -4 10 -3 0
-8 -4 -11 -10z"/>
<path d="M5997 2513 c-4 -3 -7 -11 -7 -17 0 -6 5 -5 12 2 6 6 9 14 7 17 -3 3
-9 2 -12 -2z"/>
<path d="M6081 2504 c0 -11 3 -14 6 -6 3 7 2 16 -1 19 -3 4 -6 -2 -5 -13z"/>
<path d="M6396 2505 c4 -11 -1 -15 -17 -15 -21 -1 -22 -2 -6 -11 9 -5 22 -7
27 -4 13 8 13 45 0 45 -5 0 -7 -7 -4 -15z"/>
<path d="M5930 2500 c0 -5 5 -10 11 -10 5 0 7 5 4 10 -3 6 -8 10 -11 10 -2 0
-4 -4 -4 -10z"/>
<path d="M5960 2500 c0 -5 5 -10 11 -10 5 0 7 5 4 10 -3 6 -8 10 -11 10 -2 0
-4 -4 -4 -10z"/>
<path d="M6430 2495 c0 -8 4 -15 10 -15 5 0 7 7 4 15 -4 8 -8 15 -10 15 -2 0
-4 -7 -4 -15z"/>
<path d="M7390 2500 c0 -5 5 -10 10 -10 6 0 10 5 10 10 0 6 -4 10 -10 10 -5 0
-10 -4 -10 -10z"/>
<path d="M7431 2494 c0 -11 3 -14 6 -6 3 7 2 16 -1 19 -3 4 -6 -2 -5 -13z"/>
<path d="M6520 2495 c0 -5 9 -23 20 -40 11 -16 20 -23 20 -15 0 17 -39 71 -40
55z"/>
<path d="M6665 2490 c-3 -5 1 -10 10 -10 9 0 13 5 10 10 -3 6 -8 10 -10 10 -2
0 -7 -4 -10 -10z"/>
<path d="M6976 2485 c10 -8 24 -14 29 -14 6 0 1 6 -9 14 -11 8 -24 15 -30 15
-5 0 -1 -7 10 -15z"/>
<path d="M7090 2490 c0 -5 5 -10 11 -10 5 0 7 5 4 10 -3 6 -8 10 -11 10 -2 0
-4 -4 -4 -10z"/>
<path d="M7527 2486 c-4 -10 -1 -13 8 -9 8 3 12 9 9 14 -7 12 -11 11 -17 -5z"/>
<path d="M5896 2482 c-3 -5 1 -9 9 -9 8 0 12 4 9 9 -3 4 -7 8 -9 8 -2 0 -6 -4
-9 -8z"/>
<path d="M6212 2479 c2 -7 10 -15 17 -17 8 -3 12 1 9 9 -2 7 -10 15 -17 17 -8
3 -12 -1 -9 -9z"/>
<path d="M6336 2473 c-11 -11 -6 -23 9 -23 8 0 15 4 15 9 0 13 -16 22 -24 14z"/>
<path d="M6830 2470 c0 -5 5 -10 10 -10 6 0 10 5 10 10 0 6 -4 10 -10 10 -5 0
-10 -4 -10 -10z"/>
<path d="M7126 2464 c-9 -24 -7 -27 9 -10 17 17 19 26 6 26 -5 0 -12 -7 -15
-16z"/>
<path d="M7275 2471 c-6 -5 -19 -11 -30 -14 -18 -4 -17 -5 3 -6 13 0 30 6 38
14 16 16 5 22 -11 6z"/>
<path d="M5930 2455 c0 -17 -2 -18 -11 -5 -8 12 -9 10 -4 -9 4 -13 8 -30 9
-37 1 -8 8 -20 15 -27 9 -9 14 -9 20 2 5 8 17 11 32 7 21 -6 21 -5 6 4 -9 6
-26 9 -36 5 -22 -7 -35 27 -18 44 8 8 8 14 -1 23 -9 9 -12 8 -12 -7z"/>
<path d="M5968 2464 c-5 -4 -8 -19 -8 -33 1 -23 2 -24 11 -8 11 19 9 53 -3 41z"/>
<path d="M6155 2460 c-3 -5 -4 -10 -1 -10 16 0 -41 -44 -58 -45 -13 -1 -23
-11 -27 -28 -9 -33 -5 -34 29 -2 32 30 42 32 35 5 -3 -11 0 -20 6 -20 7 0 10
10 7 25 -3 18 2 29 21 43 15 11 23 24 19 30 -9 15 -23 15 -31 2z"/>
<path d="M7545 2459 c-11 -17 1 -21 15 -4 8 9 8 15 2 15 -6 0 -14 -5 -17 -11z"/>
<path d="M6000 2456 c0 -2 14 -20 30 -41 24 -31 30 -34 30 -17 0 11 -7 22 -15
26 -8 3 -15 12 -15 21 0 8 -7 15 -15 15 -8 0 -15 -2 -15 -4z"/>
<path d="M6278 2453 c7 -3 16 -2 19 1 4 3 -2 6 -13 5 -11 0 -14 -3 -6 -6z"/>
<path d="M6665 2450 c-3 -5 -1 -10 4 -10 6 0 11 5 11 10 0 6 -2 10 -4 10 -3 0
-8 -4 -11 -10z"/>
<path d="M6710 2455 c0 -5 4 -16 9 -23 6 -11 10 -10 15 4 3 9 4 19 1 22 -3 3
-5 -1 -5 -9 0 -11 -2 -11 -10 1 -5 8 -10 11 -10 5z"/>
<path d="M6860 2450 c0 -5 5 -10 10 -10 6 0 10 5 10 10 0 6 -4 10 -10 10 -5 0
-10 -4 -10 -10z"/>
<path d="M6970 2441 c0 -12 5 -21 10 -21 6 0 10 6 10 14 0 8 -4 18 -10 21 -5
3 -10 -3 -10 -14z"/>
<path d="M5705 2430 c3 -5 8 -10 11 -10 2 0 4 5 4 10 0 6 -5 10 -11 10 -5 0
-7 -4 -4 -10z"/>
<path d="M5991 2424 c0 -11 3 -14 6 -6 3 7 2 16 -1 19 -3 4 -6 -2 -5 -13z"/>
<path d="M6200 2424 c0 -9 7 -14 17 -12 25 5 28 28 4 28 -12 0 -21 -6 -21 -16z"/>
<path d="M6330 2430 c-13 -8 -12 -10 3 -10 9 0 17 5 17 10 0 12 -1 12 -20 0z"/>
<path d="M6365 2430 c4 -6 11 -8 16 -5 14 9 11 15 -7 15 -8 0 -12 -5 -9 -10z"/>
<path d="M6476 2423 c-6 -14 -5 -15 5 -6 7 7 10 15 7 18 -3 3 -9 -2 -12 -12z"/>
<path d="M5901 2414 c0 -11 3 -14 6 -6 3 7 2 16 -1 19 -3 4 -6 -2 -5 -13z"/>
<path d="M6780 2420 c0 -5 5 -10 11 -10 5 0 7 5 4 10 -3 6 -8 10 -11 10 -2 0
-4 -4 -4 -10z"/>
<path d="M7200 2420 c0 -5 7 -10 16 -10 8 0 12 5 9 10 -3 6 -10 10 -16 10 -5
0 -9 -4 -9 -10z"/>
<path d="M6646 2411 c-4 -6 -1 -11 6 -11 10 0 9 -3 -1 -9 -10 -7 -19 -4 -29 7
-13 16 -13 16 -8 -1 3 -10 6 -23 6 -28 0 -5 11 -7 25 -5 23 4 24 2 19 -22 -4
-18 -3 -23 4 -14 5 8 13 14 18 15 5 1 8 14 8 29 -1 16 2 25 7 22 5 -3 9 2 9
11 0 9 -6 15 -12 12 -8 -2 -12 -19 -11 -43 l2 -39 -10 35 c-12 41 -24 56 -33
41z"/>
<path d="M4165 2400 c-25 -6 -26 -8 -7 -9 21 -1 22 -4 16 -36 -4 -22 -2 -35 5
-35 6 0 8 7 5 15 -3 8 1 28 9 45 9 16 12 29 9 29 -4 -1 -20 -5 -37 -9z"/>
<path d="M6161 2400 c-1 -8 6 -28 15 -45 15 -27 18 -41 23 -82 0 -7 4 -13 9
-13 10 0 7 71 -4 78 -5 4 -17 23 -26 42 -9 19 -17 28 -17 20z"/>
<path d="M6383 2397 c20 -8 27 -17 24 -29 -3 -10 -1 -16 4 -12 18 10 9 35 -17
44 -14 6 -28 10 -32 9 -4 -1 6 -6 21 -12z"/>
<path d="M6565 2392 c17 -10 32 -15 34 -10 4 12 1 14 -34 22 l-30 7 30 -19z"/>
<path d="M6755 2400 c-3 -5 -1 -10 4 -10 6 0 11 5 11 10 0 6 -2 10 -4 10 -3 0
-8 -4 -11 -10z"/>
<path d="M6990 2400 c-8 -5 -10 -10 -5 -10 6 0 17 5 25 10 8 5 11 10 5 10 -5
0 -17 -5 -25 -10z"/>
<path d="M7135 2400 c3 -5 8 -10 11 -10 2 0 4 5 4 10 0 6 -5 10 -11 10 -5 0
-7 -4 -4 -10z"/>
<path d="M7425 2400 c3 -5 8 -10 11 -10 2 0 4 5 4 10 0 6 -5 10 -11 10 -5 0
-7 -4 -4 -10z"/>
<path d="M6020 2384 c0 -8 5 -12 10 -9 6 4 8 11 5 16 -9 14 -15 11 -15 -7z"/>
<path d="M6221 2391 c-12 -8 -12 -14 -1 -40 17 -43 30 -39 30 9 0 41 -5 46
-29 31z"/>
<path d="M6262 2357 c-2 -41 1 -48 15 -45 10 2 18 10 19 18 0 9 -1 10 -3 3 -9
-27 -22 -11 -26 30 l-4 42 -1 -48z"/>
<path d="M6291 2384 c0 -11 3 -14 6 -6 3 7 2 16 -1 19 -3 4 -6 -2 -5 -13z"/>
<path d="M6315 2389 c-4 -6 -4 -13 -1 -16 3 -4 6 -1 6 5 0 6 8 13 18 15 15 4
15 5 0 6 -9 0 -20 -4 -23 -10z"/>
<path d="M6791 2388 c-1 -10 -5 -18 -11 -18 -5 0 -10 -8 -10 -17 0 -14 3 -13
16 5 8 12 13 28 11 35 -3 7 -6 5 -6 -5z"/>
<path d="M7296 2385 c4 -8 8 -15 10 -15 2 0 4 7 4 15 0 8 -4 15 -10 15 -5 0
-7 -7 -4 -15z"/>
<path d="M6950 2369 c0 -11 5 -17 10 -14 6 3 10 13 10 21 0 8 -4 14 -10 14 -5
0 -10 -9 -10 -21z"/>
<path d="M7355 2374 c9 -9 19 -13 23 -10 3 4 0 11 -8 16 -24 15 -33 11 -15 -6z"/>
<path d="M5692 2355 c0 -16 2 -22 5 -12 2 9 2 23 0 30 -3 6 -5 -1 -5 -18z"/>
<path d="M5715 2370 c-3 -5 -1 -10 4 -10 6 0 11 5 11 10 0 6 -2 10 -4 10 -3 0
-8 -4 -11 -10z"/>
<path d="M6466 2364 c-4 -9 -4 -19 -1 -22 3 -3 5 0 5 7 0 7 5 9 10 6 6 -3 10
-2 10 4 0 18 -18 21 -24 5z"/>
<path d="M6921 2364 c0 -11 3 -14 6 -6 3 7 2 16 -1 19 -3 4 -6 -2 -5 -13z"/>
<path d="M5760 2363 c0 -9 48 -33 64 -33 6 0 -4 9 -22 20 -36 22 -42 24 -42
13z"/>
<path d="M5914 2355 c14 -11 17 -18 9 -26 -8 -8 -15 -4 -27 12 -8 13 -18 20
-22 16 -3 -3 1 -13 10 -22 9 -9 16 -27 16 -40 0 -13 4 -26 9 -29 4 -3 6 -16 4
-30 -3 -13 0 -27 6 -30 7 -5 11 5 11 28 0 19 5 38 10 41 6 3 10 11 10 17 0 6
-6 5 -16 -3 -14 -12 -16 -11 -12 6 2 13 11 19 23 18 11 -1 14 0 7 3 -6 3 -10
10 -6 15 7 11 -20 39 -38 39 -8 -1 -6 -6 6 -15z"/>
<path d="M6360 2359 c0 -18 40 -48 56 -42 17 6 19 16 2 11 -16 -6 -41 19 -33
32 3 5 -1 10 -9 10 -9 0 -16 -5 -16 -11z"/>
<path d="M6854 2356 c-8 -22 -2 -27 16 -16 12 7 12 12 3 21 -10 10 -14 9 -19
-5z"/>
<path d="M5640 2350 c0 -5 5 -10 10 -10 6 0 10 5 10 10 0 6 -4 10 -10 10 -5 0
-10 -4 -10 -10z"/>
<path d="M5843 2331 c4 -25 17 -40 18 -20 0 8 7 -2 14 -21 18 -48 18 -48 -10
-42 -14 2 -22 8 -19 13 3 5 10 7 15 4 5 -4 9 1 9 9 0 9 -7 16 -15 16 -8 0 -15
-7 -15 -15 0 -10 -10 -15 -29 -15 -31 0 -49 -14 -31 -25 5 -3 10 -1 10 4 0 6
12 11 28 11 21 0 24 -2 12 -10 -11 -7 -3 -8 25 -6 39 4 40 5 37 37 -2 20 -14
44 -28 57 -23 22 -24 22 -21 3z"/>
<path d="M5983 2335 c-8 -9 -9 -16 -3 -20 6 -3 13 1 16 10 9 21 2 26 -13 10z"/>
<path d="M6011 2334 c0 -11 3 -14 6 -6 3 7 2 16 -1 19 -3 4 -6 -2 -5 -13z"/>
<path d="M6077 2334 c-11 -7 -27 -10 -34 -7 -7 3 -13 0 -13 -6 0 -13 36 -15
44 -3 3 5 26 8 51 7 25 0 44 3 42 9 -4 13 -64 13 -90 0z"/>
<path d="M6310 2340 c0 -5 10 -10 23 -10 18 0 19 2 7 10 -19 13 -30 13 -30 0z"/>
<path d="M5562 2327 c-8 -10 -6 -13 9 -13 10 0 19 6 19 13 0 7 -4 13 -9 13 -5
0 -13 -6 -19 -13z"/>
<path d="M5707 2326 c-4 -10 -1 -13 8 -9 8 3 12 9 9 14 -7 12 -11 11 -17 -5z"/>
<path d="M5742 2328 c2 -6 15 -12 28 -13 21 -2 22 -1 5 12 -23 16 -38 17 -33
1z"/>
<path d="M6917 2326 c-4 -10 -3 -15 3 -11 6 3 10 -2 11 -12 0 -10 3 -13 5 -6
3 7 1 20 -4 29 -8 15 -9 15 -15 0z"/>
<path d="M7190 2331 c0 -5 5 -13 10 -16 6 -3 10 -2 10 4 0 5 -4 13 -10 16 -5
3 -10 2 -10 -4z"/>
<path d="M5620 2320 c0 -5 5 -10 11 -10 5 0 7 5 4 10 -3 6 -8 10 -11 10 -2 0
-4 -4 -4 -10z"/>
<path d="M6557 2309 c6 -22 23 -26 23 -5 0 8 -6 16 -14 19 -10 4 -12 0 -9 -14z"/>
<path d="M6620 2326 c0 -2 7 -7 16 -10 8 -3 12 -2 9 4 -6 10 -25 14 -25 6z"/>
<path d="M6084 2304 c3 -9 6 -18 6 -20 0 -2 6 -4 14 -4 8 0 17 -8 19 -17 3
-11 5 -7 6 10 1 18 -4 27 -14 27 -8 0 -15 5 -15 10 0 6 -5 10 -11 10 -6 0 -8
-7 -5 -16z"/>
<path d="M6303 2304 c-15 -16 -16 -24 -4 -24 8 0 24 30 19 35 -2 2 -9 -3 -15
-11z"/>
<path d="M6335 2310 c3 -5 8 -10 11 -10 2 0 4 5 4 10 0 6 -5 10 -11 10 -5 0
-7 -4 -4 -10z"/>
<path d="M6470 2309 c0 -5 5 -7 10 -4 6 3 10 8 10 11 0 2 -4 4 -10 4 -5 0 -10
-5 -10 -11z"/>
<path d="M6673 2313 c-15 -5 -17 -23 -4 -23 5 0 11 7 15 15 3 8 4 15 3 14 -1
0 -8 -3 -14 -6z"/>
<path d="M5667 2304 c-7 -12 7 -27 36 -37 15 -6 16 -10 6 -28 -9 -17 -8 -20 3
-17 7 3 14 17 16 32 2 19 8 26 18 22 8 -3 14 0 14 6 0 7 -14 8 -39 4 -33 -5
-40 -3 -43 11 -2 12 -6 14 -11 7z"/>
<path d="M6151 2294 c0 -11 3 -14 6 -6 3 7 2 16 -1 19 -3 4 -6 -2 -5 -13z"/>
<path d="M6169 2273 c0 -21 -3 -32 -6 -24 -4 10 -7 11 -13 1 -5 -8 0 -21 11
-34 11 -11 17 -27 14 -36 -3 -9 1 -7 10 5 14 18 14 20 1 23 -9 2 -16 10 -16
18 0 8 3 13 8 10 4 -2 6 13 4 35 -5 49 -12 50 -13 2z"/>
<path d="M6435 2300 c-3 -5 -1 -10 4 -10 6 0 11 5 11 10 0 6 -2 10 -4 10 -3 0
-8 -4 -11 -10z"/>
<path d="M5370 2293 c0 -6 8 -17 18 -24 16 -13 16 -13 2 6 -8 11 -16 22 -17
24 -2 2 -3 0 -3 -6z"/>
<path d="M5990 2290 c0 -5 9 -10 20 -10 11 0 20 5 20 10 0 6 -9 10 -20 10 -11
0 -20 -4 -20 -10z"/>
<path d="M6256 2275 c9 -14 21 -25 28 -25 8 0 8 3 0 8 -6 4 -13 15 -17 25 -3
9 -11 17 -17 17 -6 0 -3 -11 6 -25z"/>
<path d="M6630 2291 c0 -5 5 -13 10 -16 6 -3 10 -2 10 4 0 5 -4 13 -10 16 -5
3 -10 2 -10 -4z"/>
<path d="M7206 2285 c-9 -26 -7 -32 5 -12 6 10 9 21 6 23 -2 3 -7 -2 -11 -11z"/>
<path d="M4190 2280 c0 -5 5 -10 10 -10 6 0 10 5 10 10 0 6 -4 10 -10 10 -5 0
-10 -4 -10 -10z"/>
<path d="M5614 2265 c0 -14 4 -25 9 -25 10 0 9 38 -2 44 -5 3 -8 -5 -7 -19z"/>
<path d="M5955 2258 c-5 -19 -2 -34 5 -41 10 -9 12 -7 7 10 -3 15 0 23 12 25
15 3 15 4 -1 20 -16 16 -17 15 -23 -14z"/>
<path d="M6400 2280 c0 -5 5 -10 11 -10 5 0 7 5 4 10 -3 6 -8 10 -11 10 -2 0
-4 -4 -4 -10z"/>
<path d="M6600 2281 c0 -5 -8 -11 -17 -13 -15 -3 -14 -5 5 -10 17 -5 22 -2 22
13 0 10 -2 19 -5 19 -3 0 -5 -4 -5 -9z"/>
<path d="M7265 2279 c-4 -6 -4 -13 -1 -16 3 -4 6 -1 6 6 0 7 5 9 12 5 7 -4 8
-3 4 4 -9 15 -13 15 -21 1z"/>
<path d="M6326 2271 c-3 -5 3 -11 14 -14 13 -3 20 0 20 9 0 15 -26 19 -34 5z"/>
<path d="M5258 2263 c7 -3 16 -2 19 1 4 3 -2 6 -13 5 -11 0 -14 -3 -6 -6z"/>
<path d="M5420 2262 c0 -10 41 -45 46 -39 2 2 -7 13 -21 25 -14 12 -25 18 -25
14z"/>
<path d="M6045 2260 c-3 -5 -2 -10 4 -10 5 0 13 5 16 10 3 6 2 10 -4 10 -5 0
-13 -4 -16 -10z"/>
<path d="M6080 2255 c0 -8 5 -15 10 -15 6 0 10 7 10 15 0 8 -4 15 -10 15 -5 0
-10 -7 -10 -15z"/>
<path d="M5465 2250 c3 -5 8 -10 11 -10 2 0 4 5 4 10 0 6 -5 10 -11 10 -5 0
-7 -4 -4 -10z"/>
<path d="M5496 2251 c-4 -7 -5 -15 -2 -18 9 -9 19 4 14 18 -4 11 -6 11 -12 0z"/>
<path d="M6843 2245 c0 -8 4 -12 9 -9 4 3 8 -3 8 -12 0 -10 3 -15 6 -11 8 7
-5 47 -15 47 -4 0 -8 -7 -8 -15z"/>
<path d="M4140 2246 c0 -3 9 -10 20 -16 11 -6 20 -8 20 -6 0 3 -9 10 -20 16
-11 6 -20 8 -20 6z"/>
<path d="M6380 2240 c-18 -12 -2 -12 25 0 13 6 15 9 5 9 -8 0 -22 -4 -30 -9z"/>
<path d="M5182 2220 c0 -14 2 -19 5 -12 2 6 2 18 0 25 -3 6 -5 1 -5 -13z"/>
<path d="M6060 2217 c0 -16 4 -26 10 -22 6 3 10 -2 11 -12 0 -10 3 -13 5 -6 3
6 -2 24 -10 40 l-15 28 -1 -28z"/>
<path d="M6213 2220 c-1 -11 2 -20 8 -20 5 0 9 9 9 20 0 11 -4 20 -8 20 -4 0
-8 -9 -9 -20z"/>
<path d="M6731 2224 c0 -11 3 -14 6 -6 3 7 2 16 -1 19 -3 4 -6 -2 -5 -13z"/>
<path d="M6762 2220 c0 -14 2 -19 5 -12 2 6 2 18 0 25 -3 6 -5 1 -5 -13z"/>
<path d="M7161 2224 c0 -11 3 -14 6 -6 3 7 2 16 -1 19 -3 4 -6 -2 -5 -13z"/>
<path d="M5591 2221 c-7 -5 -10 -14 -7 -20 10 -16 29 -13 23 3 -5 11 4 16 36
19 l42 4 -40 1 c-22 1 -46 -2 -54 -7z"/>
<path d="M5983 2203 c-9 -19 -9 -25 3 -30 21 -8 7 -23 -22 -23 -14 0 -22 4
-19 10 3 6 -3 10 -14 10 -11 0 -23 -5 -27 -12 -4 -7 -3 -8 4 -4 8 5 12 -1 12
-17 0 -30 26 -55 41 -40 8 8 5 13 -10 18 -30 9 -26 28 4 23 14 -3 28 -1 31 4
4 6 10 5 16 -3 6 -10 8 -3 6 20 -4 42 17 53 25 14 5 -23 11 -28 35 -28 17 0
34 3 38 8 4 4 -7 7 -25 7 -18 0 -30 3 -27 8 6 10 -14 34 -40 48 -17 10 -21 8
-31 -13z"/>
<path d="M6095 2220 c-3 -5 -4 -10 -1 -10 2 0 12 -3 20 -6 12 -5 15 -2 10 10
-7 18 -20 21 -29 6z"/>
<path d="M6240 2215 c0 -9 5 -15 11 -13 6 2 11 8 11 13 0 5 -5 11 -11 13 -6 2
-11 -4 -11 -13z"/>
<path d="M6385 2210 c-25 -27 -12 -37 14 -11 11 11 17 23 12 25 -5 3 -16 -3
-26 -14z"/>
<path d="M5535 2211 c-3 -6 -11 -9 -16 -6 -11 7 -11 -3 1 -30 5 -11 9 -14 9
-7 1 15 31 16 31 0 0 -6 2 -9 5 -6 3 3 -1 17 -9 32 -8 17 -17 23 -21 17z"/>
<path d="M5857 2213 c-4 -3 -7 -11 -7 -17 0 -6 5 -5 12 2 6 6 9 14 7 17 -3 3
-9 2 -12 -2z"/>
<path d="M6350 2210 c0 -5 5 -10 10 -10 6 0 10 5 10 10 0 6 -4 10 -10 10 -5 0
-10 -4 -10 -10z"/>
<path d="M5635 2200 c-3 -5 -2 -10 4 -10 5 0 13 5 16 10 3 6 2 10 -4 10 -5 0
-13 -4 -16 -10z"/>
<path d="M5710 2199 c-12 -8 -9 -9 10 -3 21 6 23 5 13 -8 -7 -8 -9 -19 -5 -23
4 -5 -1 -5 -10 -2 -10 4 -18 2 -18 -3 0 -6 7 -10 15 -10 7 0 18 -6 22 -14 7
-12 11 -12 28 1 16 12 16 14 3 10 -10 -3 -20 -2 -23 3 -4 6 4 11 17 11 17 1
19 2 5 6 -10 2 -16 12 -15 21 4 20 -21 26 -42 11z"/>
<path d="M5890 2195 c0 -8 5 -15 10 -15 6 0 10 7 10 15 0 8 -4 15 -10 15 -5 0
-10 -7 -10 -15z"/>
<path d="M6550 2199 c0 -5 5 -7 10 -4 6 3 10 8 10 11 0 2 -4 4 -10 4 -5 0 -10
-5 -10 -11z"/>
<path d="M4163 2184 c-9 -9 -9 -13 1 -17 20 -8 36 6 22 19 -9 8 -15 7 -23 -2z"/>
<path d="M4281 2184 c0 -11 3 -14 6 -6 3 7 2 16 -1 19 -3 4 -6 -2 -5 -13z"/>
<path d="M6852 2180 c0 -14 2 -19 5 -12 2 6 2 18 0 25 -3 6 -5 1 -5 -13z"/>
<path d="M5825 2180 c-3 -5 -1 -10 4 -10 6 0 11 5 11 10 0 6 -2 10 -4 10 -3 0
-8 -4 -11 -10z"/>
<path d="M6124 2179 c-3 -6 -1 -15 6 -19 10 -6 10 -8 0 -12 -8 -2 -2 -11 14
-21 25 -17 28 -17 51 0 13 10 25 26 25 36 0 21 -16 23 -23 3 -3 -8 -16 -20
-28 -27 -19 -10 -21 -9 -16 6 8 20 -18 51 -29 34z"/>
<path d="M6325 2180 c-3 -5 1 -10 9 -10 9 0 16 5 16 10 0 6 -4 10 -9 10 -6 0
-13 -4 -16 -10z"/>
<path d="M6392 2169 c-14 -22 -7 -25 14 -5 8 8 11 17 6 20 -4 2 -13 -4 -20
-15z"/>
<path d="M6485 2180 c-3 -5 -2 -10 4 -10 5 0 13 5 16 10 3 6 2 10 -4 10 -5 0
-13 -4 -16 -10z"/>
<path d="M6610 2175 c-7 -9 -19 -14 -26 -11 -7 3 -16 0 -20 -7 -4 -7 -4 -9 1
-5 4 4 14 3 22 -3 10 -9 18 -8 33 6 11 10 20 22 20 27 0 13 -16 9 -30 -7z"/>
<path d="M5486 2164 c-5 -14 -4 -15 9 -4 17 14 19 20 6 20 -5 0 -12 -7 -15
-16z"/>
<path d="M6448 2173 c7 -3 16 -2 19 1 4 3 -2 6 -13 5 -11 0 -14 -3 -6 -6z"/>
<path d="M6786 2165 c-3 -8 -1 -15 4 -15 6 0 10 7 10 15 0 8 -2 15 -4 15 -2 0
-6 -7 -10 -15z"/>
<path d="M4244 2158 c3 -12 0 -18 -9 -18 -8 0 -15 -4 -15 -10 0 -15 11 -12 33
8 19 16 20 16 14 -1 -4 -10 -3 -16 2 -12 19 11 23 -17 5 -36 -16 -17 -16 -19
-1 -19 10 0 16 3 16 8 -4 21 3 23 21 7 26 -23 26 -11 0 17 -11 12 -19 27 -18
33 2 6 -1 11 -6 12 -5 1 -13 7 -17 15 -7 10 -9 10 -9 -2 0 -13 -2 -13 -11 0
-9 13 -10 12 -5 -2z"/>
<path d="M5448 2163 c7 -3 16 -2 19 1 4 3 -2 6 -13 5 -11 0 -14 -3 -6 -6z"/>
<path d="M5621 2161 c-8 -5 -9 -11 -3 -15 5 -3 12 1 16 9 6 17 6 18 -13 6z"/>
<path d="M5872 2150 c0 -14 2 -19 5 -12 2 6 2 18 0 25 -3 6 -5 1 -5 -13z"/>
<path d="M5656 2144 c-4 -9 -4 -19 -1 -22 2 -3 7 3 11 12 4 9 4 19 1 22 -2 3
-7 -3 -11 -12z"/>
<path d="M5818 2153 c7 -3 16 -2 19 1 4 3 -2 6 -13 5 -11 0 -14 -3 -6 -6z"/>
<path d="M6236 2151 c-4 -5 3 -7 14 -4 23 6 26 13 6 13 -8 0 -17 -4 -20 -9z"/>
<path d="M6456 2145 c-14 -11 -16 -15 -5 -15 8 0 23 7 33 15 14 11 16 15 5 15
-8 0 -23 -7 -33 -15z"/>
<path d="M6710 2140 c0 -6 7 -10 15 -10 8 0 15 2 15 4 0 2 -7 6 -15 10 -8 3
-15 1 -15 -4z"/>
<path d="M5202 2120 c0 -14 2 -19 5 -12 2 6 2 18 0 25 -3 6 -5 1 -5 -13z"/>
<path d="M5681 2124 c0 -11 3 -14 6 -6 3 7 2 16 -1 19 -3 4 -6 -2 -5 -13z"/>
<path d="M6820 2130 c0 -5 5 -10 11 -10 5 0 7 5 4 10 -3 6 -8 10 -11 10 -2 0
-4 -4 -4 -10z"/>
<path d="M5715 2110 c9 -30 13 -35 21 -27 3 3 -2 16 -11 29 l-17 23 7 -25z"/>
<path d="M6040 2117 c1 -15 24 -47 35 -47 4 0 2 7 -5 15 -6 8 -9 18 -6 24 3 5
-1 11 -9 15 -8 3 -15 0 -15 -7z"/>
<path d="M6290 2120 c0 -5 7 -10 15 -10 8 0 15 5 15 10 0 6 -7 10 -15 10 -8 0
-15 -4 -15 -10z"/>
<path d="M6485 2119 c-11 -17 -2 -18 19 -3 17 12 17 14 4 14 -9 0 -20 -5 -23
-11z"/>
<path d="M5448 2113 c6 -2 18 -2 25 0 6 3 1 5 -13 5 -14 0 -19 -2 -12 -5z"/>
<path d="M5540 2110 c0 -5 5 -10 10 -10 6 0 10 5 10 10 0 6 -4 10 -10 10 -5 0
-10 -4 -10 -10z"/>
<path d="M5765 2110 c-3 -5 1 -10 9 -10 8 0 18 5 21 10 3 6 -1 10 -9 10 -8 0
-18 -4 -21 -10z"/>
<path d="M5994 2105 c3 -8 0 -15 -6 -15 -6 0 -9 -2 -6 -5 7 -7 38 5 38 15 0 4
-7 11 -16 14 -12 4 -15 2 -10 -9z"/>
<path d="M5601 2097 c-1 -12 -6 -16 -13 -11 -10 5 -10 4 -1 -6 16 -17 26 -8
20 17 -4 17 -5 17 -6 0z"/>
<path d="M5860 2100 c0 -5 5 -10 10 -10 6 0 10 5 10 10 0 6 -4 10 -10 10 -5 0
-10 -4 -10 -10z"/>
<path d="M6133 2091 c1 -22 12 -28 21 -12 3 5 -1 14 -9 21 -11 9 -14 8 -12 -9z"/>
<path d="M6218 2103 c7 -3 16 -2 19 1 4 3 -2 6 -13 5 -11 0 -14 -3 -6 -6z"/>
<path d="M6450 2100 c0 -5 5 -10 11 -10 5 0 7 5 4 10 -3 6 -8 10 -11 10 -2 0
-4 -4 -4 -10z"/>
<path d="M5334 2088 c-4 -6 1 -17 11 -25 18 -13 18 -13 -1 -28 -12 -9 -14 -14
-6 -15 7 0 20 7 28 15 13 13 12 16 -5 26 -10 7 -17 19 -14 26 6 16 -3 17 -13
1z"/>
<path d="M5690 2091 c0 -6 4 -13 10 -16 6 -3 7 1 4 9 -7 18 -14 21 -14 7z"/>
<path d="M6415 2090 c-3 -5 -1 -10 4 -10 6 0 11 5 11 10 0 6 -2 10 -4 10 -3 0
-8 -4 -11 -10z"/>
<path d="M6620 2090 c0 -5 5 -10 11 -10 5 0 7 5 4 10 -3 6 -8 10 -11 10 -2 0
-4 -4 -4 -10z"/>
<path d="M6713 2085 c0 -8 4 -15 8 -15 4 0 9 7 13 15 3 9 0 15 -8 15 -7 0 -13
-7 -13 -15z"/>
<path d="M4231 2074 c0 -11 3 -14 6 -6 3 7 2 16 -1 19 -3 4 -6 -2 -5 -13z"/>
<path d="M4360 2075 c0 -9 -4 -13 -10 -10 -5 3 -10 2 -10 -3 0 -5 8 -12 18
-14 19 -5 29 27 11 37 -5 4 -9 -1 -9 -10z"/>
<path d="M5155 2080 c-3 -5 -1 -10 4 -10 6 0 11 5 11 10 0 6 -2 10 -4 10 -3 0
-8 -4 -11 -10z"/>
<path d="M5180 2085 c0 -7 30 -13 34 -7 3 4 -4 9 -15 9 -10 1 -19 0 -19 -2z"/>
<path d="M5265 2081 c-3 -5 -1 -12 5 -16 5 -3 10 1 10 9 0 18 -6 21 -15 7z"/>
<path d="M5498 2083 c6 -2 18 -2 25 0 6 3 1 5 -13 5 -14 0 -19 -2 -12 -5z"/>
<path d="M5773 2065 c0 -14 3 -25 8 -25 5 0 9 9 9 19 0 11 -4 22 -9 25 -5 3
-8 -6 -8 -19z"/>
<path d="M5934 2075 c8 -8 21 -15 28 -15 8 1 6 6 -6 15 -26 20 -42 19 -22 0z"/>
<path d="M6090 2065 c0 -14 4 -25 9 -25 5 0 11 11 13 25 4 17 1 25 -8 25 -8 0
-14 -11 -14 -25z"/>
<path d="M6475 2080 c-3 -6 1 -7 9 -4 18 7 21 14 7 14 -6 0 -13 -4 -16 -10z"/>
<path d="M5431 2053 c-17 -16 -20 -23 -10 -23 8 0 20 5 27 12 9 9 12 8 12 -4
0 -9 6 -18 13 -21 10 -4 13 2 9 19 -7 37 -24 43 -51 17z"/>
<path d="M6190 2069 c-11 -8 -12 -12 -2 -16 6 -2 12 -9 12 -14 0 -14 -27 -11
-34 4 -3 6 -3 1 0 -12 3 -13 2 -21 -3 -18 -5 3 -9 -6 -10 -21 -2 -26 -1 -26 7
-4 5 12 14 22 20 22 6 0 19 7 27 16 14 13 14 17 2 25 -12 8 -12 10 1 19 8 5
11 10 5 10 -5 0 -17 -5 -25 -11z"/>
<path d="M6315 2070 c4 -6 11 -8 16 -5 14 9 11 15 -7 15 -8 0 -12 -5 -9 -10z"/>
<path d="M6562 2060 c0 -14 2 -19 5 -12 2 6 2 18 0 25 -3 6 -5 1 -5 -13z"/>
<path d="M5116 2045 c-4 -14 -11 -25 -16 -25 -6 0 -10 -8 -10 -17 1 -17 2 -17
15 1 7 10 18 16 22 13 10 -6 11 38 2 48 -4 3 -9 -6 -13 -20z"/>
<path d="M5505 2049 c-4 -11 -4 -23 -1 -26 3 -4 6 1 6 10 0 10 5 17 10 17 6 0
10 5 10 10 0 18 -19 10 -25 -11z"/>
<path d="M5650 2060 c0 -5 7 -10 16 -10 8 0 12 5 9 10 -3 6 -10 10 -16 10 -5
0 -9 -4 -9 -10z"/>
<path d="M5870 2061 c-27 -8 -18 -17 17 -16 13 0 23 4 24 10 1 13 -11 14 -41
6z"/>
<path d="M6236 2055 c4 -8 8 -15 10 -15 2 0 4 7 4 15 0 8 -4 15 -10 15 -5 0
-7 -7 -4 -15z"/>
<path d="M6273 2044 c-6 -13 -8 -26 -4 -28 3 -2 11 7 18 20 6 13 8 26 4 28 -3
2 -11 -7 -18 -20z"/>
<path d="M5180 2051 c0 -5 7 -15 17 -22 15 -13 15 -12 4 9 -12 23 -21 28 -21
13z"/>
<path d="M5240 2039 c0 -11 4 -18 10 -14 5 3 7 12 3 20 -7 21 -13 19 -13 -6z"/>
<path d="M5293 2045 c-7 -8 -9 -16 -4 -19 5 -3 12 1 15 10 8 22 4 25 -11 9z"/>
<path d="M5602 2048 c6 -18 28 -21 28 -4 0 9 -7 16 -16 16 -9 0 -14 -5 -12
-12z"/>
<path d="M5994 2044 c9 -8 16 -22 16 -30 0 -15 16 -19 23 -6 7 10 -28 52 -43
52 -7 0 -5 -6 4 -16z"/>
<path d="M5540 2030 c0 -5 5 -10 11 -10 5 0 7 5 4 10 -3 6 -8 10 -11 10 -2 0
-4 -4 -4 -10z"/>
<path d="M5935 2030 c-3 -5 1 -10 9 -10 9 0 16 5 16 10 0 6 -4 10 -9 10 -6 0
-13 -4 -16 -10z"/>
<path d="M6310 2024 c0 -8 5 -12 10 -9 6 3 10 10 10 16 0 5 -4 9 -10 9 -5 0
-10 -7 -10 -16z"/>
<path d="M6390 2035 c0 -5 5 -17 10 -25 5 -8 10 -10 10 -5 0 6 -5 17 -10 25
-5 8 -10 11 -10 5z"/>
<path d="M6720 2030 c0 -5 5 -10 11 -10 5 0 7 5 4 10 -3 6 -8 10 -11 10 -2 0
-4 -4 -4 -10z"/>
<path d="M4351 2014 c0 -11 3 -14 6 -6 3 7 2 16 -1 19 -3 4 -6 -2 -5 -13z"/>
<path d="M4380 2014 c0 -8 5 -12 10 -9 6 3 10 10 10 16 0 5 -4 9 -10 9 -5 0
-10 -7 -10 -16z"/>
<path d="M5679 2014 c-5 -18 -2 -20 26 -20 26 1 31 4 27 20 -5 17 -6 18 -17 2
-16 -21 -23 -20 -27 2 -3 14 -5 14 -9 -4z"/>
<path d="M5751 2014 c0 -11 3 -14 6 -6 3 7 2 16 -1 19 -3 4 -6 -2 -5 -13z"/>
<path d="M5860 2018 c0 -4 7 -8 16 -8 14 0 14 -1 0 -16 -24 -23 -19 -28 9 -10
20 13 28 14 45 4 23 -15 27 -33 5 -25 -21 8 -27 -7 -11 -28 15 -21 38 -12 29
11 -5 13 -1 15 18 9 19 -5 21 -4 9 4 -13 10 -13 12 0 20 8 5 18 7 22 5 4 -3 5
2 2 10 -5 14 -8 14 -21 1 -20 -20 -29 -19 -55 7 -21 21 -68 32 -68 16z"/>
<path d="M5592 2004 c-7 -8 -8 -14 -3 -14 10 0 25 19 20 25 -2 1 -10 -3 -17
-11z"/>
<path d="M5630 2005 c-14 -16 -3 -20 19 -6 8 5 9 11 3 15 -5 3 -15 -1 -22 -9z"/>
<path d="M5772 2014 c4 -3 3 -18 -1 -32 -5 -15 -5 -36 0 -47 6 -17 8 -15 8 10
1 17 4 40 7 53 4 14 2 22 -7 22 -7 0 -10 -3 -7 -6z"/>
<path d="M4430 2000 c0 -5 6 -7 14 -4 15 6 36 -24 36 -48 -1 -7 -7 -2 -14 11
-13 23 -13 23 -19 2 -3 -11 -1 -19 3 -16 5 3 11 1 15 -5 13 -21 24 -9 23 24
-1 26 -6 36 -22 40 -30 8 -36 7 -36 -4z"/>
<path d="M5515 1999 c-4 -6 -5 -12 -2 -15 2 -3 7 2 10 11 7 17 1 20 -8 4z"/>
<path d="M6360 1996 c0 -8 4 -17 9 -20 5 -4 7 3 4 14 -6 23 -13 26 -13 6z"/>
<path d="M6088 1980 c-7 -11 -21 -20 -30 -20 -20 0 -25 -16 -7 -22 11 -4 69
44 69 56 0 14 -21 5 -32 -14z"/>
<path d="M6260 1990 c0 -5 5 -10 10 -10 6 0 10 5 10 10 0 6 -4 10 -10 10 -5 0
-10 -4 -10 -10z"/>
<path d="M6296 1991 c-4 -7 -5 -15 -2 -18 9 -9 19 4 14 18 -4 11 -6 11 -12 0z"/>
<path d="M6021 1964 c0 -11 3 -14 6 -6 3 7 2 16 -1 19 -3 4 -6 -2 -5 -13z"/>
<path d="M4411 1954 c0 -11 3 -14 6 -6 3 7 2 16 -1 19 -3 4 -6 -2 -5 -13z"/>
<path d="M5334 1953 c2 -9 8 -19 14 -21 6 -2 8 5 5 17 -6 25 -22 28 -19 4z"/>
<path d="M5805 1961 c-3 -5 -1 -12 5 -16 5 -3 10 1 10 9 0 18 -6 21 -15 7z"/>
<path d="M5398 1953 c7 -3 16 -2 19 1 4 3 -2 6 -13 5 -11 0 -14 -3 -6 -6z"/>
<path d="M5480 1949 c0 -5 5 -7 10 -4 6 3 10 8 10 11 0 2 -4 4 -10 4 -5 0 -10
-5 -10 -11z"/>
<path d="M6260 1940 c0 -11 5 -20 10 -20 6 0 10 9 10 20 0 11 -4 20 -10 20 -5
0 -10 -9 -10 -20z"/>
<path d="M5064 1935 c-10 -8 -17 -15 -14 -15 31 -7 36 -6 36 11 0 11 -1 19 -1
19 -1 0 -10 -7 -21 -15z"/>
<path d="M5285 1940 c-3 -5 3 -10 15 -10 12 0 18 5 15 10 -3 6 -10 10 -15 10
-5 0 -12 -4 -15 -10z"/>
<path d="M6367 1933 c3 -7 6 -13 8 -13 2 0 5 6 8 13 3 8 -1 14 -8 14 -7 0 -11
-6 -8 -14z"/>
<path d="M4457 1919 c7 -7 15 -10 18 -7 3 3 -2 9 -12 12 -14 6 -15 5 -6 -5z"/>
<path d="M5413 1905 c0 -8 4 -15 9 -15 4 0 8 7 8 15 0 8 -4 15 -8 15 -5 0 -9
-7 -9 -15z"/>
<path d="M6001 1902 c-1 -19 -5 -22 -28 -17 -27 5 -27 5 -5 -5 31 -13 52 -1
41 25 -7 19 -8 19 -8 -3z"/>
<path d="M6156 1905 c-9 -26 -7 -32 5 -12 6 10 9 21 6 23 -2 3 -7 -2 -11 -11z"/>
<path d="M6311 1904 c0 -11 3 -14 6 -6 3 7 2 16 -1 19 -3 4 -6 -2 -5 -13z"/>
<path d="M4557 1899 c7 -7 15 -10 18 -7 3 3 -2 9 -12 12 -14 6 -15 5 -6 -5z"/>
<path d="M4605 1900 c27 -12 43 -12 25 0 -8 5 -22 9 -30 9 -10 0 -8 -3 5 -9z"/>
<path d="M5285 1880 c-3 -5 -1 -10 4 -10 6 0 11 5 11 10 0 6 -2 10 -4 10 -3 0
-8 -4 -11 -10z"/>
<path d="M5397 1863 c-3 -5 5 -8 18 -8 13 0 21 3 18 8 -2 4 -10 7 -18 7 -8 0
-16 -3 -18 -7z"/>
<path d="M5835 1850 c-3 -6 1 -7 9 -4 18 7 21 14 7 14 -6 0 -13 -4 -16 -10z"/>
<path d="M6028 1853 c12 -2 22 -9 22 -14 0 -6 5 -7 10 -4 21 13 9 25 -22 24
-24 -1 -27 -3 -10 -6z"/>
<path d="M6150 1840 c-9 -6 -10 -10 -3 -10 6 0 15 5 18 10 8 12 4 12 -15 0z"/>
</g>
</svg>
